<svg width="13" height="13" viewBox="0 0 13 13" fill="none" xmlns="http://www.w3.org/2000/svg">
<path d="M5.77084 0.767822C5.9956 0.0774789 6.97187 0.0774793 7.19662 0.767822L8.04233 3.36938C8.20978 3.88417 8.68945 4.23262 9.2308 4.23267H11.9652C12.6916 4.23267 12.9939 5.16196 12.4066 5.58911L10.1937 7.19653C9.75575 7.51474 9.57255 8.07912 9.73959 8.59399L10.5853 11.1956C10.8094 11.8864 10.0187 12.4604 9.431 12.0334L7.21811 10.426C6.78018 10.1081 6.18729 10.1081 5.74936 10.426L3.53647 12.0334C2.94878 12.4604 2.15804 11.8864 2.38217 11.1956L3.22787 8.59399C3.39492 8.07912 3.21172 7.51473 2.77377 7.19653L0.560883 5.58911C-0.0264716 5.16195 0.275879 4.23267 1.00229 4.23267H3.73666C4.27802 4.23262 4.75769 3.88417 4.92514 3.36938L5.77084 0.767822Z" stroke="#F6AB4A" stroke-width="0.5"/>
</svg>
