<svg width="168" height="30" viewBox="0 0 168 30" fill="none" xmlns="http://www.w3.org/2000/svg">
<path fill-rule="evenodd" clip-rule="evenodd" d="M35.8987 8.73138C38.1614 8.73138 40.0244 9.06179 41.4869 9.72382C42.977 10.3583 44.0807 11.3521 44.7982 12.7039C45.5431 14.028 45.9156 15.7381 45.9156 17.8345V26.1932C45.9156 27.4068 45.6263 28.331 45.047 28.9655C44.4675 29.5999 43.6251 29.9176 42.5214 29.9176C41.3901 29.9175 40.5207 29.5999 39.9137 28.9655C39.4084 28.4121 39.1233 27.6384 39.0587 26.6446C38.8886 27.135 38.6501 27.5777 38.3414 27.9721C37.8447 28.6066 37.1957 29.103 36.3954 29.4617C35.5952 29.8203 34.6848 30 33.6638 30C32.0909 30 30.6971 29.7105 29.4829 29.1312C28.2965 28.5519 27.3582 27.7658 26.6684 26.7728C26.0061 25.7521 25.6749 24.5931 25.6749 23.2965C25.6749 21.8069 26.0616 20.6342 26.8342 19.7791C27.6069 18.924 28.8487 18.3176 30.5594 17.959C32.2702 17.5728 34.5468 17.3795 37.3889 17.3795H38.9621V16.7999C38.9621 15.8069 38.6998 15.1034 38.1755 14.6896C37.6788 14.2759 36.8096 14.0689 35.5678 14.0689C34.9056 14.0689 34.1607 14.1515 33.3329 14.317C32.5051 14.4549 31.5804 14.7172 30.5594 15.1035C29.8144 15.3793 29.1796 15.421 28.6553 15.228C28.1311 15.0349 27.7175 14.7035 27.4139 14.2346C27.1381 13.7658 27.0002 13.2554 27.0001 12.7039C27.0277 12.1521 27.2068 11.6275 27.5379 11.131C27.8966 10.6345 28.4347 10.2487 29.1521 9.97284C30.4765 9.47634 31.6906 9.14503 32.7943 8.97949C33.9255 8.81399 34.9606 8.7314 35.8987 8.73138ZM33.5289 23.4485C33.284 23.3069 32.9827 23.3069 32.7378 23.4485C32.552 23.5559 32.4169 23.7237 32.3003 23.9072C32.1016 24.2196 31.9295 24.5585 31.696 24.8355C31.4311 25.1498 31.097 25.3724 30.8255 25.6787C30.554 25.985 30.341 26.4253 30.4245 26.857C30.5065 27.281 30.863 27.5747 31.2284 27.6389C31.5938 27.7029 31.9645 27.5786 32.3066 27.4146C32.322 27.4072 32.3378 27.4001 32.3531 27.3926C32.8471 27.1501 33.4196 27.15 33.9135 27.3926C33.9287 27.4 33.9439 27.4073 33.9591 27.4146C34.3012 27.5786 34.672 27.7029 35.0374 27.6389C35.4028 27.5748 35.7592 27.2811 35.8413 26.857C35.9248 26.4253 35.7118 25.985 35.4402 25.6787C35.1687 25.3725 34.8346 25.1497 34.5698 24.8355C34.3364 24.5586 34.1649 24.2195 33.9664 23.9072C33.8498 23.7238 33.7145 23.5559 33.5289 23.4485ZM31.2566 23.4393C30.9909 22.5947 30.411 22.0376 29.9186 22.1878C29.6512 22.2693 29.5139 22.5769 29.4738 22.749C29.3795 23.1555 29.3591 23.5883 29.5121 23.9676C29.6653 24.3469 30.0169 24.6618 30.4418 24.6973C30.7573 24.7236 31.1054 24.5733 31.2521 24.2953C31.3768 24.059 31.3343 23.686 31.2566 23.4393ZM36.348 22.1878C35.8556 22.0376 35.2757 22.5947 35.01 23.4393C34.9324 23.686 34.8898 24.059 35.0146 24.2953C35.1612 24.5733 35.5094 24.7236 35.8249 24.6973C36.2498 24.6618 36.6014 24.3469 36.7546 23.9676C36.9075 23.5883 36.8872 23.1555 36.7928 22.749C36.7528 22.5769 36.6154 22.2693 36.348 22.1878ZM31.932 20.1562C31.6518 20.1562 31.434 20.4124 31.3478 20.5664C31.1443 20.9304 31.0055 21.3417 31.0479 21.752C31.0905 22.1622 31.3414 22.5681 31.7406 22.7271C32.0373 22.845 32.4147 22.8026 32.6329 22.5778C32.8184 22.3866 32.88 22.015 32.8736 21.7548C32.8515 20.8634 32.4478 20.1564 31.932 20.1562ZM34.3337 20.1562C33.8179 20.1564 33.4143 20.8634 33.3922 21.7548C33.3858 22.015 33.4474 22.3866 33.6328 22.5778C33.851 22.8026 34.2285 22.845 34.5251 22.7271C34.9243 22.5681 35.1753 22.1622 35.2178 21.752C35.2603 21.3417 35.1215 20.9304 34.918 20.5664C34.8318 20.4124 34.6139 20.1562 34.3337 20.1562Z" fill="#F6AB4A"/>
<path d="M89.4861 0C90.6726 0 91.5839 0.317666 92.2186 0.952148C92.8807 1.58662 93.2121 2.51078 93.2121 3.72437V21.1862C93.2121 22.2069 93.4046 22.9521 93.7909 23.421C94.2048 23.89 94.7294 24.1241 95.3641 24.1241C95.5572 24.1241 95.7506 24.1105 95.9437 24.0829C96.1645 24.0278 96.3991 23.986 96.6474 23.9584C97.1165 23.9585 97.4612 24.1382 97.6819 24.4968C97.9302 24.8554 98.0547 25.5862 98.0547 26.6895C98.0547 27.655 97.8613 28.3865 97.475 28.8831C97.0887 29.3519 96.495 29.6552 95.6949 29.7931C95.4742 29.8207 95.157 29.8625 94.7434 29.9176C94.3294 29.9728 93.9427 30 93.584 30C90.9352 29.9999 88.9762 29.2965 87.7069 27.8897C86.4651 26.4552 85.8439 24.3033 85.8439 21.4343V3.72437C85.8439 2.51061 86.1617 1.58663 86.7964 0.952148C87.4309 0.317748 88.3273 8.23591e-05 89.4861 0Z" fill="#F6AB4A"/>
<path d="M117.122 8.81378C118.309 8.81385 119.219 9.13152 119.854 9.76593C120.489 10.3728 120.806 11.2833 120.806 12.4969V26.1932C120.806 28.6759 119.619 29.9175 117.246 29.9176C116.087 29.9176 115.19 29.5999 114.556 28.9655C114.061 28.4706 113.76 27.7995 113.651 26.9522C113.122 27.7645 112.472 28.4225 111.7 28.9243C110.624 29.6415 109.34 30 107.85 30C106.084 30 104.636 29.6823 103.504 29.0479C102.373 28.3858 101.517 27.4065 100.938 26.1099C100.386 24.8134 100.11 23.1722 100.11 21.1862V12.4969C100.11 11.2834 100.427 10.3728 101.062 9.76593C101.696 9.13145 102.608 8.81378 103.794 8.81378C104.981 8.81383 105.891 9.1315 106.526 9.76593C107.16 10.3728 107.477 11.2833 107.477 12.4969V21.3931C107.477 22.3862 107.685 23.1314 108.099 23.6279C108.513 24.1242 109.161 24.3723 110.044 24.3723C111.037 24.3723 111.851 24.0137 112.486 23.2965C113.12 22.5793 113.438 21.6272 113.438 20.441V12.4969C113.438 11.2834 113.755 10.3728 114.39 9.76593C115.025 9.13145 115.936 8.81378 117.122 8.81378Z" fill="#F6AB4A"/>
<path fill-rule="evenodd" clip-rule="evenodd" d="M157.983 8.73138C159.501 8.73138 160.88 8.97925 162.122 9.47571C163.364 9.94464 164.426 10.6482 165.309 11.586C166.192 12.4963 166.855 13.6 167.296 14.8965C167.765 16.1931 168 17.6416 168 19.2416C168 19.7932 167.848 20.2073 167.544 20.4831C167.241 20.7311 166.758 20.8548 166.096 20.8548H154.313C154.5 21.9333 154.882 22.761 155.458 23.3377C156.341 24.1652 157.693 24.5791 159.514 24.5792C160.121 24.5792 160.812 24.5102 161.584 24.3723C162.384 24.2067 163.144 23.9862 163.861 23.7103C164.578 23.4346 165.199 23.3929 165.723 23.5858C166.247 23.7513 166.648 24.0554 166.924 24.4968C167.227 24.9106 167.393 25.3934 167.42 25.9451C167.448 26.4691 167.324 26.9932 167.048 27.5171C166.772 28.0136 166.317 28.4003 165.682 28.6761C164.716 29.1175 163.681 29.4479 162.578 29.6686C161.502 29.8893 160.411 30 159.307 30C156.824 30 154.672 29.5725 152.851 28.7173C151.057 27.8346 149.678 26.593 148.712 24.993C147.746 23.393 147.262 21.5033 147.262 19.324C147.263 17.2275 147.718 15.3932 148.629 13.8208C149.567 12.2208 150.836 10.9792 152.437 10.0964C154.065 9.18618 155.914 8.7314 157.983 8.73138ZM158.314 13.4894C157.459 13.4894 156.714 13.6964 156.079 14.1101C155.472 14.4963 155.003 15.0763 154.672 15.8487C154.481 16.2945 154.347 16.805 154.266 17.3795H161.942C161.9 16.6022 161.769 15.9539 161.543 15.4349C161.267 14.8004 160.853 14.3175 160.301 13.9865C159.777 13.6555 159.114 13.4894 158.314 13.4894Z" fill="#F6AB4A"/>
<path fill-rule="evenodd" clip-rule="evenodd" d="M14.0319 0.37262C17.3431 0.372633 19.8954 1.22768 21.6891 2.93793C23.5102 4.62063 24.4216 6.95156 24.4216 9.93073C24.4216 12.91 23.5103 15.2553 21.6891 16.9656C19.8954 18.6483 17.3431 19.4897 14.0319 19.4897H7.61615V26.0687C7.61615 27.2825 7.29835 28.2346 6.66367 28.9243C6.029 29.5861 5.07724 29.9176 3.80807 29.9176C2.59397 29.9176 1.65575 29.5863 0.99349 28.9243C0.33122 28.2346 0 27.2825 0 26.0687V4.22058C1.93427e-05 2.97937 0.33136 2.02801 0.99349 1.36597C1.68329 0.703962 2.6351 0.372683 3.84909 0.37262H14.0319ZM7.61615 13.6551H12.7076C14.1423 13.6551 15.2463 13.3519 16.0189 12.7451C16.7915 12.1106 17.1773 11.1721 17.1773 9.93073C17.1773 8.66202 16.7913 7.72416 16.0189 7.11731C15.2463 6.51045 14.1423 6.20731 12.7076 6.20728H7.61615V13.6551Z" fill="#F6AB4A"/>
<path d="M79.7936 8.81378C80.7318 8.81378 81.4498 9.03435 81.9465 9.47571C82.4431 9.917 82.7188 10.4963 82.7741 11.2134C82.8569 11.9305 82.7189 12.7031 82.3603 13.5306L76.7721 27.0621C76.3858 28.0275 75.8478 28.7446 75.1579 29.2136C74.4681 29.6825 73.6543 29.9176 72.7161 29.9176C71.7503 29.9176 70.9223 29.6825 70.2324 29.2136C69.5702 28.7446 69.0321 28.0275 68.6182 27.0621L65.6122 19.5502L62.7822 26.9797C62.3959 27.9726 61.8712 28.7171 61.209 29.2136C60.5468 29.6825 59.7329 29.9176 58.7672 29.9176C57.829 29.9176 57.0143 29.6961 56.3245 29.2548C55.6348 28.7858 55.0831 28.0686 54.6693 27.1033L49.0401 13.4894C48.6814 12.6343 48.5569 11.8618 48.6673 11.1722C48.7777 10.455 49.109 9.88946 49.6608 9.47571C50.2403 9.03437 51.0272 8.81378 52.0206 8.81378C52.8758 8.81385 53.5797 9.02079 54.1315 9.43451C54.6833 9.82076 55.1794 10.5934 55.6208 11.7517L59.1546 21.026L62.9061 10.9653C63.182 10.2207 63.5546 9.68314 64.0236 9.35211C64.5203 8.99349 65.1415 8.81378 65.8866 8.81378C66.6867 8.81381 67.3216 8.99352 67.7906 9.35211C68.2595 9.7107 68.6322 10.2483 68.9081 10.9653L72.7171 21.1835L76.3583 11.5036C76.7446 10.4554 77.2415 9.75196 77.8486 9.39331C78.4555 9.00718 79.1039 8.81386 79.7936 8.81378Z" fill="#F6AB4A"/>
<path d="M141.195 8.81378C142.133 8.81378 142.865 9.06247 143.389 9.55902C143.941 10.0555 144.216 10.6901 144.216 11.4624C144.244 12.2347 143.927 13.0209 143.265 13.8208L138.982 19.0466L143.803 24.8694C144.465 25.6417 144.782 26.4142 144.754 27.1866C144.726 27.9588 144.437 28.6071 143.886 29.1312C143.334 29.6276 142.589 29.8754 141.651 29.8755C140.795 29.8755 140.077 29.7375 139.498 29.4617C138.919 29.1583 138.367 28.676 137.843 28.0142L134.794 24.1159L131.716 28.0142C131.219 28.6485 130.681 29.1171 130.102 29.4205C129.55 29.7238 128.833 29.8755 127.95 29.8755C127.039 29.8755 126.308 29.6277 125.756 29.1312C125.204 28.6347 124.914 28.0001 124.886 27.2278C124.886 26.4554 125.204 25.6693 125.839 24.8694L130.622 19.0521L126.335 13.8208C125.701 12.9933 125.383 12.2071 125.383 11.4624C125.411 10.6901 125.701 10.0555 126.252 9.55902C126.804 9.06247 127.536 8.81378 128.446 8.81378C129.329 8.81379 130.046 8.96547 130.598 9.2688C131.178 9.54466 131.73 10.0139 132.254 10.676L134.82 13.9865L137.387 10.676C137.911 10.0139 138.463 9.54466 139.043 9.2688C139.622 8.96549 140.34 8.81378 141.195 8.81378Z" fill="#F6AB4A"/>
</svg>
