<svg width="171" height="40" viewBox="0 0 171 40" fill="none" xmlns="http://www.w3.org/2000/svg">
<path d="M7.06341 34.689C6.03036 35.0266 5.58055 35.1849 4.88165 35.7153C4.89941 36.601 4.95291 37.53 5.02728 38.5186C5.06569 39.0474 5.60342 40.0457 6.93841 39.1594C7.68283 38.6666 7.30984 35.5568 8.59621 34.2034C8.60997 34.1882 8.61797 34.1703 8.63151 34.1548C8.00209 34.3809 7.48413 34.552 7.06341 34.689Z" fill="#7E4C4F"/>
<path d="M43.664 21.7409C42.138 21.9241 37.443 21.9591 34.7049 20.1797C34.7715 20.295 34.8361 20.4098 34.9125 20.5235C36.5079 22.8719 38.9634 24.0335 40.9305 24.6076C41.803 24.4816 42.6769 24.2853 43.5558 23.9792C45.32 23.366 44.6386 21.6252 43.664 21.7409Z" fill="#F6AB4A"/>
<path d="M18.9707 4.00305C21.1372 3.12208 23.9861 4.80126 26.5206 8.05623C26.9416 7.86021 27.3636 7.66419 27.7917 7.47064C25.0751 4.00328 21.9622 2.22182 19.5666 3.19587C18.6612 3.56369 17.9479 4.29484 17.4233 5.29333C17.8411 4.69899 18.354 4.25334 18.9707 4.00305Z" fill="#F6AB4A"/>
<path d="M31.9853 27.563C31.5546 29.3568 30.712 30.6482 29.4638 31.1564C28.8506 31.404 28.1772 31.4428 27.4746 31.3022C28.5249 31.6601 29.5329 31.6904 30.4372 31.3228C31.7042 30.8076 32.5949 29.5786 33.1131 27.8889C32.7395 27.7794 32.3645 27.6702 31.9853 27.563Z" fill="#F6AB4A"/>
<path d="M27.6331 5.64473C24.6576 2.35119 21.2905 0.777416 18.587 1.87482C14.114 3.69552 13.1767 12.1334 16.4952 20.7188C19.8132 29.3083 26.1327 34.7939 30.6086 32.9734C32.3203 32.2771 33.5094 30.6098 34.1439 28.338C34.3597 27.5627 34.7627 33.2392 30.1872 34.9843C25.2477 36.8674 18.323 30.8437 14.6322 21.2876C10.9363 11.7299 11.9136 2.36778 16.8115 0.376404C20.0308 -0.935407 24.145 1.26769 27.6331 5.64473Z" fill="#F6AB4A"/>
<path d="M13.0794 21.22C10.6914 15.0427 10.5173 8.95799 12.2699 5.34417C10.0629 6.58489 8.46212 11.5845 10.1326 18.3445C10.1297 18.3468 10.127 18.3479 10.1246 18.3499C7.58427 19.7925 6.3654 20.248 3.75315 19.6052C1.66286 19.0885 0.957504 16.8701 0.808752 17.1727C-1.02755 20.8888 3.07532 23.7064 5.47488 23.5223C5.30948 27.4907 2.92702 29.4392 1.86245 30.9511C0.466625 32.9333 0.199981 35.615 0.00194191 38.8744C-0.0318047 39.4037 0.366499 40.4657 1.8085 39.7722C2.61264 39.3842 2.66282 36.2539 4.11814 35.0899C5.44003 34.0329 5.96976 34.1062 8.48943 33.1898C11.3503 32.1501 13.8307 30.2821 14.1793 27.8917C14.3784 28.2079 14.5694 28.5302 14.7832 28.833C18.3128 33.9501 21.1901 32.968 21.1901 32.968C17.5857 30.7512 14.9215 25.9869 13.0794 21.22Z" fill="#7E4C4F"/>
<path d="M42.4166 5.58343C42.6317 4.75673 43.03 2.8138 42.0874 2.19366C41.6722 1.92139 41.1143 3.13878 39.8679 3.98835C40.4471 4.17585 41.6862 4.67016 42.4166 5.58343Z" fill="#F6AB4A"/>
<path d="M44.2275 26.1329C42.2806 26.0699 36.9706 25.2475 34.1295 21.0664C31.402 17.0539 34.3702 12.6584 39.1584 13.9799C46.8209 16.0935 47.08 12.0239 46.9883 10.7662C44.719 9.92176 43.1292 9.77643 42.8401 8.31502C42.2165 5.13855 39.2767 4.88018 38.4082 4.57269C38.2748 4.09094 37.5663 1.59762 36.2655 1.57183C35.5804 1.55837 36.184 4.1275 34.1794 5.84638C27.8344 8.25133 21.6124 11.4072 16.183 14.5926C16.51 16.3817 17.018 18.2396 17.7409 20.1099C18.4698 21.9968 19.3498 23.7235 20.3167 25.2661C21.6706 25.214 23.2724 25.2623 25.364 25.3686C32.4175 25.6967 37.5941 29.4875 43.7917 28.3315C45.6271 27.9895 45.2077 26.1645 44.2275 26.1329ZM40.1386 7.88306C40.4747 7.91379 40.7232 8.21477 40.6939 8.55568C40.6623 8.89636 40.3633 9.14755 40.0258 9.11727C39.6908 9.0861 39.4413 8.78444 39.4701 8.44488C39.503 8.1042 39.7996 7.85301 40.1386 7.88306Z" fill="#F6AB4A"/>
<path d="M59.5756 20.9442C58.7544 20.9442 58.1198 20.7208 57.6719 20.2738C57.224 19.8083 57 19.1658 57 18.3465V3.59786C57 2.75987 57.224 2.11741 57.6719 1.67048C58.1385 1.22356 58.7824 1.00009 59.6036 1.00009H66.4904C68.7301 1.00009 70.4564 1.57737 71.6696 2.73194C72.9014 3.86788 73.5173 5.44143 73.5173 7.45261C73.5173 9.46378 72.9014 11.0466 71.6696 12.2012C70.4564 13.3371 68.7301 13.9051 66.4904 13.9051H62.1512V18.3465C62.1512 19.1658 61.9365 19.8083 61.5073 20.2738C61.078 20.7208 60.4341 20.9442 59.5756 20.9442ZM62.1512 9.96657H65.5946C66.5651 9.96657 67.3116 9.76173 67.8342 9.35205C68.3568 8.92374 68.6181 8.29059 68.6181 7.45261C68.6181 6.59599 68.3568 5.96285 67.8342 5.55316C67.3116 5.14348 66.5651 4.93864 65.5946 4.93864H62.1512V9.96657Z" fill="#7E4C4F"/>
<path d="M79.7685 21.0001C78.7047 21.0001 77.7622 20.8046 76.941 20.4135C76.1385 20.0224 75.5039 19.4917 75.0373 18.8213C74.5894 18.1323 74.3654 17.3502 74.3654 16.475C74.3654 15.4694 74.6267 14.6779 75.1493 14.1006C75.6719 13.5234 76.5117 13.1137 77.6689 12.8716C78.826 12.6109 80.3657 12.4805 82.2881 12.4805H83.8278V14.8269H82.2881C81.5602 14.8269 80.9536 14.8828 80.4684 14.9945C80.0018 15.0876 79.6565 15.2459 79.4326 15.4694C79.2086 15.6742 79.0966 15.9442 79.0966 16.2794C79.0966 16.7077 79.2459 17.0615 79.5445 17.3409C79.8618 17.6202 80.3098 17.7599 80.8883 17.7599C81.3549 17.7599 81.7655 17.6574 82.1201 17.4526C82.4934 17.2478 82.792 16.9684 83.016 16.6146C83.2399 16.2422 83.3519 15.8139 83.3519 15.3297V12.0895C83.3519 11.4191 83.1746 10.9442 82.82 10.6649C82.4841 10.3856 81.8962 10.2459 81.0563 10.2459C80.6084 10.2459 80.1045 10.3018 79.5445 10.4135C78.9846 10.5066 78.3594 10.6835 77.6689 10.9442C77.1649 11.1304 76.7357 11.1584 76.3811 11.028C76.0265 10.8977 75.7465 10.6742 75.5412 10.3576C75.3546 10.0411 75.2613 9.69655 75.2613 9.32411C75.2799 8.95167 75.4012 8.59786 75.6252 8.26266C75.8678 7.92747 76.2318 7.66676 76.717 7.48054C77.6129 7.14534 78.4341 6.92188 79.1806 6.81015C79.9458 6.69842 80.6457 6.64255 81.2803 6.64255C82.8107 6.64255 84.0705 6.86601 85.0596 7.31294C86.0675 7.74125 86.814 8.41164 87.2992 9.32411C87.8032 10.218 88.0551 11.3725 88.0551 12.7878V18.4303C88.0551 19.2496 87.8592 19.8735 87.4672 20.3018C87.0753 20.7301 86.506 20.9442 85.7595 20.9442C84.9943 20.9442 84.4064 20.7301 83.9958 20.3018C83.6039 19.8735 83.4079 19.2496 83.4079 18.4303V17.704L83.5759 18.0951C83.4826 18.691 83.2679 19.2031 82.932 19.6314C82.596 20.0597 82.1574 20.3949 81.6162 20.637C81.075 20.879 80.4591 21.0001 79.7685 21.0001Z" fill="#7E4C4F"/>
<path d="M96.747 20.9442C96.1124 20.9442 95.5619 20.7952 95.0953 20.4973C94.6287 20.1807 94.2554 19.6966 93.9755 19.0448L90.1681 9.85484C89.9255 9.27756 89.8415 8.75614 89.9161 8.29059C89.9908 7.80642 90.2148 7.42467 90.588 7.14534C90.98 6.84739 91.5119 6.69842 92.1838 6.69842C92.7623 6.69842 93.2383 6.83808 93.6115 7.11741C93.9848 7.37812 94.3207 7.89953 94.6194 8.68166L97.3069 15.7208H96.719L99.5465 8.15093C99.7332 7.64814 99.9851 7.28501 100.302 7.06154C100.638 6.81946 101.058 6.69842 101.562 6.69842C102.103 6.69842 102.533 6.81946 102.85 7.06154C103.167 7.30363 103.419 7.66676 103.606 8.15093L106.433 15.7208H105.929L108.645 8.51406C108.906 7.80642 109.242 7.33156 109.653 7.08948C110.063 6.82877 110.502 6.69842 110.969 6.69842C111.603 6.69842 112.088 6.84739 112.424 7.14534C112.76 7.4433 112.947 7.83436 112.984 8.31853C113.04 8.8027 112.947 9.32411 112.704 9.88277L108.925 19.0169C108.664 19.6686 108.3 20.1528 107.833 20.4694C107.367 20.7859 106.816 20.9442 106.181 20.9442C105.528 20.9442 104.968 20.7859 104.502 20.4694C104.054 20.1528 103.69 19.6686 103.41 19.0169L100.33 11.3353H102.374L99.4625 18.961C99.2013 19.6314 98.8467 20.1342 98.3987 20.4694C97.9508 20.7859 97.4002 20.9442 96.747 20.9442Z" fill="#7E4C4F"/>
<path d="M121.182 21.0001C119.408 21.0001 118.097 20.5311 117.247 19.5932C116.416 18.6369 116 17.2024 116 15.2897V3.48285C116 2.67366 116.212 2.05756 116.637 1.63457C117.062 1.21159 117.663 1.00009 118.439 1.00009C119.233 1.00009 119.842 1.21159 120.267 1.63457C120.711 2.05756 120.932 2.67366 120.932 3.48285V15.1242C120.932 15.8047 121.062 16.3012 121.32 16.6139C121.597 16.9265 121.948 17.0828 122.373 17.0828C122.503 17.0828 122.632 17.0737 122.761 17.0553C122.909 17.0185 123.066 16.9909 123.232 16.9725C123.546 16.9725 123.777 17.092 123.925 17.3311C124.091 17.5702 124.175 18.0576 124.175 18.7932C124.175 19.4369 124.045 19.9242 123.787 20.2553C123.528 20.5679 123.131 20.7702 122.595 20.8622C122.447 20.8806 122.235 20.9081 121.958 20.9449C121.681 20.9817 121.422 21.0001 121.182 21.0001Z" fill="#F6AB4A"/>
<path d="M130.732 21.0001C129.55 21.0001 128.58 20.7886 127.823 20.3656C127.065 19.9242 126.493 19.2714 126.105 18.407C125.735 17.5426 125.55 16.4484 125.55 15.1242V9.33113C125.55 8.52193 125.763 7.91503 126.188 7.51044C126.613 7.08745 127.222 6.87595 128.017 6.87595C128.811 6.87595 129.421 7.08745 129.846 7.51044C130.27 7.91503 130.483 8.52193 130.483 9.33113V15.2622C130.483 15.9242 130.621 16.4208 130.899 16.7518C131.176 17.0828 131.61 17.2484 132.201 17.2484C132.866 17.2484 133.411 17.0093 133.836 16.5311C134.261 16.053 134.473 15.4185 134.473 14.6277V9.33113C134.473 8.52193 134.686 7.91503 135.11 7.51044C135.535 7.08745 136.145 6.87595 136.939 6.87595C137.734 6.87595 138.343 7.08745 138.768 7.51044C139.193 7.91503 139.406 8.52193 139.406 9.33113V18.4622C139.406 20.1173 138.611 20.9449 137.022 20.9449C136.247 20.9449 135.646 20.7334 135.221 20.3104C134.796 19.8874 134.584 19.2714 134.584 18.4622V16.8622L135.027 18.2139C134.621 19.115 134.048 19.8047 133.309 20.2828C132.589 20.761 131.73 21.0001 130.732 21.0001Z" fill="#F6AB4A"/>
<path d="M144.188 20.9173C143.578 20.9173 143.089 20.7518 142.719 20.4208C142.35 20.0897 142.156 19.6668 142.137 19.1518C142.137 18.6369 142.35 18.1127 142.775 17.5794L146.876 12.6139V14.7932L143.107 10.2139C142.682 9.66216 142.47 9.13802 142.47 8.64147C142.488 8.12653 142.682 7.70354 143.052 7.37251C143.421 7.04147 143.911 6.87595 144.52 6.87595C145.112 6.87595 145.592 6.9771 145.961 7.1794C146.349 7.36331 146.719 7.67595 147.07 8.11733L149.647 11.4277H147.929L150.506 8.11733C150.857 7.67595 151.226 7.36331 151.614 7.1794C152.002 6.9771 152.482 6.87595 153.055 6.87595C153.683 6.87595 154.173 7.04147 154.524 7.37251C154.893 7.70354 155.078 8.12653 155.078 8.64147C155.096 9.15641 154.884 9.68055 154.441 10.2139L150.672 14.7932V12.6139L154.801 17.5794C155.244 18.0943 155.457 18.6093 155.438 19.1242C155.42 19.6392 155.226 20.0714 154.856 20.4208C154.487 20.7518 153.988 20.9173 153.36 20.9173C152.787 20.9173 152.307 20.8254 151.919 20.6415C151.531 20.4392 151.162 20.1173 150.811 19.676L147.929 16.007H149.619L146.71 19.676C146.377 20.0989 146.017 20.4116 145.629 20.6139C145.259 20.8162 144.779 20.9173 144.188 20.9173Z" fill="#F6AB4A"/>
<path d="M165.181 21.0001C163.518 21.0001 162.077 20.715 160.858 20.1449C159.657 19.5564 158.734 18.7288 158.087 17.6622C157.441 16.5955 157.117 15.3357 157.117 13.8828C157.117 12.4851 157.422 11.2622 158.032 10.2139C158.66 9.14722 159.51 8.31963 160.581 7.73113C161.671 7.12423 162.909 6.82078 164.294 6.82078C165.31 6.82078 166.234 6.9863 167.065 7.31733C167.896 7.62998 168.608 8.09894 169.199 8.72423C169.79 9.33113 170.233 10.0668 170.529 10.9311C170.843 11.7955 171 12.761 171 13.8277C171 14.1955 170.898 14.4714 170.695 14.6553C170.492 14.8208 170.169 14.9035 169.725 14.9035H161.246V12.5863H167.398L166.954 12.9449C166.954 12.2645 166.862 11.7127 166.677 11.2897C166.493 10.8668 166.215 10.5449 165.846 10.3242C165.495 10.1035 165.052 9.99319 164.516 9.99319C163.943 9.99319 163.444 10.1311 163.02 10.407C162.613 10.6645 162.299 11.0507 162.077 11.5656C161.856 12.0806 161.745 12.7242 161.745 13.4966V13.7449C161.745 15.0507 162.031 15.9886 162.604 16.5587C163.195 17.1104 164.1 17.3863 165.319 17.3863C165.726 17.3863 166.188 17.3403 166.705 17.2484C167.241 17.138 167.749 16.9909 168.229 16.807C168.709 16.6231 169.125 16.5955 169.476 16.7242C169.827 16.8346 170.095 17.0369 170.28 17.3311C170.483 17.607 170.594 17.9288 170.612 18.2966C170.631 18.6461 170.547 18.9955 170.363 19.3449C170.178 19.676 169.873 19.9334 169.448 20.1173C168.802 20.4116 168.109 20.6323 167.37 20.7794C166.65 20.9265 165.92 21.0001 165.181 21.0001Z" fill="#F6AB4A"/>
<path d="M75.7479 36.0067C75.5064 36.0067 75.3194 35.944 75.187 35.8185C75.0623 35.6856 75 35.5047 75 35.2758V28.8307C75 28.5944 75.0662 28.4172 75.1987 28.2991C75.3311 28.1736 75.5181 28.1108 75.7596 28.1108H78.5758C79.4795 28.1108 80.1768 28.3249 80.6676 28.7531C81.1584 29.1813 81.4038 29.7793 81.4038 30.5472C81.4038 31.315 81.1584 31.9167 80.6676 32.3523C80.1768 32.7805 79.4795 32.9946 78.5758 32.9946H76.4958V35.2758C76.4958 35.5047 76.4335 35.6856 76.3088 35.8185C76.1842 35.944 75.9972 36.0067 75.7479 36.0067ZM76.4958 31.8761H78.3421C78.8719 31.8761 79.2731 31.7653 79.5458 31.5438C79.8184 31.315 79.9548 30.9827 79.9548 30.5472C79.9548 30.1116 79.8184 29.783 79.5458 29.5616C79.2731 29.3401 78.8719 29.2293 78.3421 29.2293H76.4958V31.8761Z" fill="#7E4C4F"/>
<path d="M85.0138 36.0289C84.3672 36.0289 83.8102 35.9145 83.3428 35.6856C82.8754 35.4567 82.5131 35.1319 82.256 34.7111C82.0067 34.2902 81.8821 33.7919 81.8821 33.216C81.8821 32.6549 82.0028 32.164 82.2443 31.7432C82.4936 31.3224 82.8325 30.9938 83.261 30.7576C83.6972 30.5139 84.1919 30.3921 84.7451 30.3921C85.1502 30.3921 85.5124 30.4549 85.8318 30.5804C86.159 30.7059 86.4356 30.8868 86.6615 31.123C86.8952 31.3593 87.0705 31.6472 87.1874 31.9868C87.312 32.319 87.3743 32.6956 87.3743 33.1164C87.3743 33.2493 87.3237 33.3526 87.2224 33.4264C87.1289 33.4929 86.9926 33.5261 86.8134 33.5261H83.0623V32.7288H86.346L86.159 32.8949C86.159 32.5553 86.1045 32.271 85.9954 32.0422C85.8942 31.8133 85.7422 31.6398 85.5397 31.5217C85.3449 31.3962 85.0995 31.3334 84.8035 31.3334C84.4763 31.3334 84.1958 31.4073 83.9621 31.5549C83.7362 31.6952 83.5609 31.8982 83.4363 32.164C83.3194 32.4224 83.261 32.7325 83.261 33.0942V33.1717C83.261 33.7771 83.409 34.2312 83.705 34.5339C84.0089 34.8292 84.4529 34.9768 85.0372 34.9768C85.2398 34.9768 85.4657 34.9547 85.715 34.9104C85.9721 34.8587 86.2136 34.7738 86.4395 34.6557C86.6031 34.5671 86.7472 34.5302 86.8719 34.5449C86.9965 34.5523 87.0939 34.5929 87.164 34.6668C87.2419 34.7406 87.2886 34.8329 87.3042 34.9436C87.3198 35.047 87.2964 35.154 87.2341 35.2648C87.1796 35.3755 87.0822 35.4715 86.942 35.5527C86.6693 35.7151 86.3538 35.8369 85.9954 35.9181C85.6449 35.992 85.3177 36.0289 85.0138 36.0289Z" fill="#7E4C4F"/>
<path d="M91.1259 36.0289C90.6195 36.0289 90.1949 35.9477 89.8522 35.7853C89.5172 35.6228 89.2679 35.3866 89.1043 35.0765C88.9407 34.759 88.8589 34.3678 88.8589 33.9026V31.5438H88.2512C88.0643 31.5438 87.9201 31.4995 87.8189 31.4109C87.7176 31.315 87.6669 31.1858 87.6669 31.0233C87.6669 30.8535 87.7176 30.7243 87.8189 30.6358C87.9201 30.5472 88.0643 30.5029 88.2512 30.5029H88.8589V29.4951C88.8589 29.2662 88.9212 29.0927 89.0459 28.9746C89.1783 28.8565 89.3614 28.7974 89.5951 28.7974C89.8288 28.7974 90.008 28.8565 90.1326 28.9746C90.2573 29.0927 90.3196 29.2662 90.3196 29.4951V30.5029H91.5583C91.7452 30.5029 91.8894 30.5472 91.9906 30.6358C92.0919 30.7243 92.1426 30.8535 92.1426 31.0233C92.1426 31.1858 92.0919 31.315 91.9906 31.4109C91.8894 31.4995 91.7452 31.5438 91.5583 31.5438H90.3196V33.8251C90.3196 34.1795 90.4014 34.4453 90.565 34.6225C90.7286 34.7996 90.9935 34.8882 91.3596 34.8882C91.4921 34.8882 91.6089 34.8772 91.7102 34.855C91.8115 34.8329 91.9011 34.8181 91.979 34.8107C92.0724 34.8033 92.1503 34.8329 92.2127 34.8993C92.275 34.9584 92.3062 35.0839 92.3062 35.2758C92.3062 35.4235 92.2789 35.5564 92.2244 35.6745C92.1776 35.7853 92.088 35.8628 91.9556 35.9071C91.8543 35.9366 91.7219 35.9624 91.5583 35.9846C91.3947 36.0141 91.2506 36.0289 91.1259 36.0289Z" fill="#7E4C4F"/>
<path d="M93.8813 30.824C93.78 30.9421 93.6709 31.0086 93.5541 31.0233C93.445 31.0381 93.3476 31.0197 93.2619 30.968C93.1762 30.9089 93.1295 30.8277 93.1217 30.7243C93.1139 30.6136 93.1645 30.4955 93.2736 30.37C93.4294 30.1854 93.5346 30.0008 93.5891 29.8163C93.6437 29.6317 93.6709 29.4693 93.6709 29.329L93.7293 29.6944C93.4567 29.6944 93.2347 29.6206 93.0633 29.473C92.8997 29.3253 92.8179 29.126 92.8179 28.875C92.8179 28.6313 92.8958 28.4357 93.0516 28.288C93.2074 28.133 93.4177 28.0555 93.6826 28.0555C93.9553 28.0555 94.1695 28.1441 94.3253 28.3212C94.4811 28.491 94.559 28.7384 94.559 29.0632C94.559 29.2404 94.5396 29.425 94.5006 29.6169C94.4694 29.8015 94.4032 29.9971 94.3019 30.2039C94.2085 30.4032 94.0682 30.6099 93.8813 30.824Z" fill="#7E4C4F"/>
<path d="M97.6525 36.0289C97.3176 36.0289 96.9631 35.9957 96.5891 35.9292C96.2152 35.8628 95.8802 35.7483 95.5842 35.5859C95.4595 35.5121 95.3699 35.4272 95.3154 35.3312C95.2687 35.2279 95.2492 35.1282 95.257 35.0322C95.2726 34.9288 95.3115 34.8403 95.3738 34.7664C95.4439 34.6926 95.5296 34.6446 95.6309 34.6225C95.74 34.6003 95.8568 34.6188 95.9815 34.6778C96.2931 34.8181 96.5852 34.9178 96.8579 34.9768C97.1306 35.0285 97.3994 35.0544 97.6642 35.0544C98.0382 35.0544 98.3147 34.9953 98.4939 34.8772C98.6809 34.7517 98.7744 34.5892 98.7744 34.3899C98.7744 34.2201 98.712 34.0909 98.5874 34.0023C98.4705 33.9063 98.2914 33.8362 98.0499 33.7919L96.8813 33.5815C96.3983 33.4929 96.0282 33.3268 95.7711 33.0831C95.5219 32.8321 95.3972 32.511 95.3972 32.1197C95.3972 31.7653 95.4985 31.4589 95.701 31.2005C95.9114 30.9421 96.1996 30.7428 96.5658 30.6025C96.9319 30.4623 97.3526 30.3921 97.8278 30.3921C98.1706 30.3921 98.49 30.429 98.7861 30.5029C99.0899 30.5693 99.382 30.6764 99.6625 30.824C99.7793 30.8831 99.8572 30.9606 99.8962 31.0566C99.9429 31.1525 99.9546 31.2522 99.9312 31.3556C99.9079 31.4515 99.8611 31.5401 99.791 31.6214C99.7209 31.6952 99.6313 31.7432 99.5223 31.7653C99.421 31.7801 99.3041 31.7579 99.1717 31.6989C98.9302 31.5807 98.6965 31.4958 98.4705 31.4442C98.2524 31.3925 98.0421 31.3666 97.8395 31.3666C97.4578 31.3666 97.1734 31.4294 96.9865 31.5549C96.8073 31.6804 96.7177 31.8465 96.7177 32.0532C96.7177 32.2083 96.7722 32.3375 96.8813 32.4408C96.9904 32.5442 97.1578 32.6143 97.3838 32.6513L98.5523 32.8617C99.0587 32.9503 99.4405 33.1127 99.6975 33.3489C99.9624 33.5852 100.095 33.9026 100.095 34.3013C100.095 34.8403 99.8728 35.2648 99.4288 35.5748C98.9847 35.8775 98.3926 36.0289 97.6525 36.0289Z" fill="#7E4C4F"/>
<path d="M107.419 36.0289C107.076 36.0289 106.733 36.003 106.391 35.9514C106.048 35.9071 105.725 35.8369 105.421 35.741C105.117 35.6376 104.844 35.5121 104.603 35.3644C104.463 35.2758 104.365 35.1688 104.311 35.0433C104.256 34.9178 104.237 34.796 104.252 34.6778C104.276 34.5523 104.326 34.4453 104.404 34.3567C104.49 34.2607 104.595 34.2016 104.72 34.1795C104.844 34.1573 104.981 34.1906 105.129 34.2792C105.471 34.4711 105.834 34.6114 106.215 34.7C106.597 34.7886 106.998 34.8329 107.419 34.8329C108.034 34.8329 108.482 34.7369 108.763 34.5449C109.043 34.3456 109.184 34.0909 109.184 33.7808C109.184 33.5224 109.082 33.3194 108.88 33.1717C108.685 33.0241 108.346 32.9023 107.863 32.8063L106.578 32.5516C105.838 32.4039 105.284 32.1566 104.918 31.8096C104.56 31.4552 104.381 30.9901 104.381 30.4143C104.381 30.0525 104.459 29.724 104.614 29.4287C104.77 29.1334 104.988 28.8786 105.269 28.6645C105.557 28.4504 105.896 28.288 106.286 28.1773C106.683 28.0592 107.119 28.0001 107.594 28.0001C108.062 28.0001 108.506 28.0555 108.926 28.1662C109.347 28.2769 109.725 28.4394 110.06 28.6535C110.185 28.7347 110.266 28.8343 110.305 28.9525C110.352 29.0706 110.364 29.1887 110.34 29.3068C110.317 29.4176 110.263 29.5136 110.177 29.5948C110.091 29.676 109.982 29.724 109.85 29.7387C109.725 29.7535 109.581 29.7166 109.417 29.628C109.129 29.473 108.837 29.3622 108.541 29.2958C108.245 29.2293 107.925 29.1961 107.583 29.1961C107.224 29.1961 106.917 29.2441 106.659 29.3401C106.402 29.436 106.204 29.5726 106.063 29.7498C105.931 29.9196 105.865 30.1226 105.865 30.3589C105.865 30.6247 105.958 30.8388 106.145 31.0012C106.332 31.1562 106.652 31.2781 107.104 31.3666L108.377 31.6214C109.149 31.7764 109.721 32.02 110.095 32.3523C110.477 32.6845 110.668 33.1274 110.668 33.6812C110.668 34.0355 110.59 34.3567 110.434 34.6446C110.286 34.9325 110.068 35.1799 109.78 35.3866C109.499 35.5933 109.16 35.752 108.763 35.8628C108.366 35.9735 107.918 36.0289 107.419 36.0289Z" fill="#F6AB4A"/>
<path d="M112.536 36.0067C112.302 36.0067 112.123 35.9477 111.998 35.8295C111.874 35.704 111.811 35.5269 111.811 35.298V28.7199C111.811 28.491 111.874 28.3176 111.998 28.1994C112.123 28.0813 112.302 28.0222 112.536 28.0222C112.769 28.0222 112.949 28.0813 113.073 28.1994C113.206 28.3176 113.272 28.491 113.272 28.7199V31.5881H113.108C113.28 31.1968 113.545 30.9015 113.903 30.7022C114.269 30.4955 114.682 30.3921 115.142 30.3921C115.601 30.3921 115.979 30.4733 116.275 30.6358C116.571 30.7982 116.793 31.0455 116.941 31.3777C117.089 31.7026 117.163 32.116 117.163 32.618V35.298C117.163 35.5269 117.101 35.704 116.976 35.8295C116.852 35.9477 116.672 36.0067 116.439 36.0067C116.205 36.0067 116.022 35.9477 115.89 35.8295C115.765 35.704 115.703 35.5269 115.703 35.298V32.6845C115.703 32.2637 115.617 31.9573 115.445 31.7653C115.282 31.5734 115.025 31.4774 114.674 31.4774C114.246 31.4774 113.903 31.6066 113.646 31.865C113.397 32.116 113.272 32.4519 113.272 32.8727V35.298C113.272 35.7705 113.027 36.0067 112.536 36.0067Z" fill="#F6AB4A"/>
<path d="M121.253 36.0289C120.661 36.0289 120.147 35.9145 119.71 35.6856C119.274 35.4567 118.935 35.1319 118.694 34.7111C118.452 34.2829 118.331 33.7808 118.331 33.205C118.331 32.7694 118.398 32.3818 118.53 32.0422C118.67 31.6952 118.869 31.3999 119.126 31.1562C119.383 30.9052 119.691 30.717 120.049 30.5915C120.408 30.4586 120.809 30.3921 121.253 30.3921C121.845 30.3921 122.359 30.5066 122.795 30.7354C123.232 30.9643 123.57 31.2891 123.812 31.7099C124.053 32.1308 124.174 32.6291 124.174 33.205C124.174 33.6405 124.104 34.0318 123.964 34.3788C123.831 34.7258 123.637 35.0248 123.38 35.2758C123.122 35.5195 122.815 35.7077 122.456 35.8406C122.098 35.9661 121.697 36.0289 121.253 36.0289ZM121.253 34.9768C121.541 34.9768 121.794 34.9104 122.012 34.7775C122.23 34.6446 122.398 34.449 122.515 34.1906C122.639 33.9248 122.702 33.5963 122.702 33.205C122.702 32.6143 122.569 32.1751 122.304 31.8871C122.04 31.5918 121.689 31.4442 121.253 31.4442C120.965 31.4442 120.711 31.5106 120.493 31.6435C120.275 31.769 120.104 31.9647 119.979 32.2304C119.862 32.4888 119.804 32.8137 119.804 33.205C119.804 33.7882 119.936 34.2312 120.201 34.5339C120.466 34.8292 120.817 34.9768 121.253 34.9768Z" fill="#F6AB4A"/>
<path d="M126.104 38.0001C125.871 38.0001 125.691 37.941 125.567 37.8229C125.442 37.7048 125.38 37.5313 125.38 37.3024V31.1119C125.38 30.8831 125.442 30.7096 125.567 30.5915C125.691 30.4733 125.867 30.4143 126.093 30.4143C126.326 30.4143 126.506 30.4733 126.63 30.5915C126.755 30.7096 126.817 30.8831 126.817 31.1119V31.9757L126.689 31.6435C126.805 31.267 127.043 30.9643 127.401 30.7354C127.768 30.5066 128.192 30.3921 128.675 30.3921C129.174 30.3921 129.61 30.5066 129.984 30.7354C130.366 30.9643 130.662 31.2891 130.872 31.7099C131.082 32.1234 131.188 32.6217 131.188 33.205C131.188 33.7808 131.082 34.2829 130.872 34.7111C130.662 35.1319 130.37 35.4567 129.996 35.6856C129.622 35.9145 129.182 36.0289 128.675 36.0289C128.2 36.0289 127.783 35.9181 127.425 35.6967C127.066 35.4678 126.825 35.1725 126.7 34.8107H126.841V37.3024C126.841 37.5313 126.774 37.7048 126.642 37.8229C126.517 37.941 126.338 38.0001 126.104 38.0001ZM128.266 34.9768C128.554 34.9768 128.808 34.9104 129.026 34.7775C129.244 34.6446 129.411 34.449 129.528 34.1906C129.653 33.9248 129.715 33.5963 129.715 33.205C129.715 32.6143 129.583 32.1751 129.318 31.8871C129.053 31.5918 128.702 31.4442 128.266 31.4442C127.978 31.4442 127.725 31.5106 127.507 31.6435C127.289 31.769 127.117 31.9647 126.992 32.2304C126.876 32.4888 126.817 32.8137 126.817 33.205C126.817 33.7882 126.95 34.2312 127.214 34.5339C127.479 34.8292 127.83 34.9768 128.266 34.9768Z" fill="#F6AB4A"/>
<path d="M138.317 36.0289C137.733 36.0289 137.226 35.9403 136.798 35.7631C136.369 35.5859 136.038 35.3423 135.805 35.0322C135.579 34.7147 135.466 34.3456 135.466 33.9248C135.466 33.6738 135.501 33.4412 135.571 33.2271C135.649 33.0056 135.758 32.8026 135.898 32.618C136.046 32.4261 136.221 32.2489 136.424 32.0865C136.634 31.9167 136.872 31.7579 137.137 31.6103L137.534 31.3888L137.324 31.6878C136.981 31.363 136.732 31.0566 136.576 30.7686C136.428 30.4733 136.354 30.1706 136.354 29.8606C136.354 29.4914 136.447 29.1666 136.634 28.886C136.821 28.6055 137.086 28.3877 137.429 28.2326C137.772 28.0776 138.173 28.0001 138.633 28.0001C139.271 28.0001 139.778 28.1551 140.152 28.4652C140.526 28.7679 140.713 29.1813 140.713 29.7055C140.713 29.9861 140.654 30.2518 140.537 30.5029C140.42 30.7539 140.233 30.9938 139.976 31.2227C139.719 31.4515 139.376 31.6767 138.948 31.8982L138.96 31.566L140.946 33.5704H140.631C140.732 33.408 140.822 33.2308 140.9 33.0389C140.977 32.8395 141.044 32.6291 141.098 32.4076C141.161 32.1788 141.207 31.9425 141.238 31.6989C141.27 31.5143 141.336 31.3777 141.437 31.2891C141.538 31.1932 141.682 31.1452 141.869 31.1452C142.072 31.1452 142.224 31.2005 142.325 31.3113C142.426 31.4146 142.465 31.566 142.442 31.7653C142.403 32.1123 142.337 32.4445 142.243 32.762C142.158 33.0721 142.049 33.3637 141.916 33.6369C141.784 33.9026 141.636 34.15 141.472 34.3788L141.46 34.0355L142.571 35.0987C142.719 35.2389 142.793 35.3792 142.793 35.5195C142.793 35.6597 142.734 35.7779 142.617 35.8738C142.508 35.9624 142.356 36.0067 142.162 36.0067C141.99 36.0067 141.85 35.9772 141.741 35.9181C141.632 35.8517 141.511 35.7557 141.379 35.6302L140.654 34.9104H140.993C140.65 35.2574 140.245 35.5305 139.778 35.7299C139.318 35.9292 138.831 36.0289 138.317 36.0289ZM138.399 34.9325C138.773 34.9325 139.104 34.8661 139.392 34.7332C139.688 34.5929 139.957 34.3862 140.198 34.113L140.163 34.4674L137.756 32.1086L138.364 32.164L138.025 32.3523C137.76 32.4999 137.546 32.6476 137.382 32.7952C137.219 32.9355 137.098 33.0905 137.02 33.2603C136.95 33.4228 136.915 33.6073 136.915 33.814C136.915 34.161 137.043 34.4342 137.3 34.6335C137.557 34.8329 137.924 34.9325 138.399 34.9325ZM138.633 28.9857C138.352 28.9857 138.126 29.0632 137.955 29.2183C137.783 29.3659 137.698 29.5689 137.698 29.8273C137.698 29.9676 137.721 30.1005 137.768 30.226C137.815 30.3441 137.896 30.477 138.013 30.6247C138.13 30.7649 138.29 30.9384 138.492 31.1452L138.165 31.123C138.492 30.9458 138.749 30.7871 138.936 30.6468C139.131 30.5066 139.271 30.3663 139.357 30.226C139.443 30.0857 139.486 29.9307 139.486 29.7609C139.486 29.5099 139.408 29.3179 139.252 29.185C139.096 29.0521 138.89 28.9857 138.633 28.9857Z" fill="#F6AB4A"/>
<path d="M151.184 36.0289C150.327 36.0289 149.591 35.8665 148.975 35.5416C148.368 35.2094 147.9 34.7443 147.573 34.1463C147.246 33.5409 147.082 32.8284 147.082 32.009C147.082 31.3962 147.176 30.8462 147.363 30.3589C147.549 29.8642 147.818 29.4434 148.169 29.0964C148.519 28.7421 148.948 28.4726 149.454 28.288C149.968 28.0961 150.545 28.0001 151.184 28.0001C151.612 28.0001 152.033 28.0518 152.446 28.1551C152.859 28.2585 153.221 28.4061 153.533 28.5981C153.696 28.6941 153.805 28.8122 153.86 28.9525C153.914 29.0854 153.926 29.2183 153.895 29.3511C153.864 29.4767 153.797 29.5837 153.696 29.6723C153.603 29.7609 153.482 29.8126 153.334 29.8273C153.194 29.8347 153.038 29.7867 152.866 29.6834C152.625 29.5357 152.364 29.4287 152.084 29.3622C151.803 29.2958 151.519 29.2626 151.23 29.2626C150.677 29.2626 150.21 29.3696 149.828 29.5837C149.446 29.7978 149.158 30.1079 148.963 30.5139C148.769 30.92 148.671 31.4183 148.671 32.009C148.671 32.5922 148.769 33.0905 148.963 33.504C149.158 33.9174 149.446 34.2312 149.828 34.4453C150.21 34.6594 150.677 34.7664 151.23 34.7664C151.527 34.7664 151.819 34.7332 152.107 34.6668C152.395 34.5929 152.668 34.4822 152.925 34.3345C153.096 34.2386 153.248 34.198 153.381 34.2127C153.521 34.2201 153.638 34.2644 153.731 34.3456C153.825 34.4268 153.887 34.5302 153.918 34.6557C153.949 34.7738 153.942 34.8993 153.895 35.0322C153.848 35.1577 153.755 35.2685 153.614 35.3644C153.303 35.5785 152.929 35.7446 152.493 35.8628C152.064 35.9735 151.628 36.0289 151.184 36.0289Z" fill="#F6AB4A"/>
<path d="M156.829 36.0289C156.416 36.0289 156.046 35.9551 155.719 35.8074C155.4 35.6524 155.146 35.4456 154.96 35.1872C154.78 34.9288 154.691 34.6372 154.691 34.3124C154.691 33.9137 154.8 33.5999 155.018 33.3711C155.236 33.1348 155.591 32.965 156.081 32.8617C156.572 32.7583 157.23 32.7066 158.056 32.7066H158.64V33.504H158.068C157.585 33.504 157.199 33.5261 156.911 33.5704C156.623 33.6147 156.416 33.6922 156.292 33.803C156.175 33.9063 156.116 34.054 156.116 34.2459C156.116 34.4896 156.206 34.6889 156.385 34.8439C156.564 34.999 156.814 35.0765 157.133 35.0765C157.39 35.0765 157.616 35.0211 157.811 34.9104C158.013 34.7923 158.173 34.6335 158.29 34.4342C158.407 34.2349 158.465 34.006 158.465 33.7476V32.4741C158.465 32.1049 158.38 31.8391 158.208 31.6767C158.037 31.5143 157.748 31.4331 157.343 31.4331C157.117 31.4331 156.872 31.4589 156.607 31.5106C156.35 31.5623 156.077 31.6509 155.789 31.7764C155.641 31.8428 155.509 31.8613 155.392 31.8318C155.283 31.8022 155.197 31.7432 155.135 31.6546C155.072 31.5586 155.041 31.4552 155.041 31.3445C155.041 31.2338 155.072 31.1267 155.135 31.0233C155.197 30.9126 155.302 30.8314 155.45 30.7797C155.809 30.6394 156.151 30.5398 156.479 30.4807C156.814 30.4216 157.117 30.3921 157.39 30.3921C157.951 30.3921 158.411 30.4733 158.769 30.6358C159.135 30.7982 159.408 31.0455 159.587 31.3777C159.766 31.7026 159.856 32.1234 159.856 32.6402V35.298C159.856 35.5269 159.797 35.704 159.681 35.8295C159.564 35.9477 159.396 36.0067 159.178 36.0067C158.96 36.0067 158.789 35.9477 158.664 35.8295C158.547 35.704 158.489 35.5269 158.489 35.298V34.7664H158.582C158.528 35.0248 158.418 35.25 158.255 35.442C158.099 35.6265 157.9 35.7705 157.659 35.8738C157.417 35.9772 157.141 36.0289 156.829 36.0289Z" fill="#F6AB4A"/>
<path d="M162.086 36.0067C161.845 36.0067 161.658 35.9477 161.525 35.8295C161.401 35.704 161.338 35.5269 161.338 35.298V31.1119C161.338 30.8831 161.401 30.7096 161.525 30.5915C161.65 30.4733 161.825 30.4143 162.051 30.4143C162.277 30.4143 162.452 30.4733 162.577 30.5915C162.702 30.7096 162.764 30.8831 162.764 31.1119V31.8096H162.647C162.756 31.3666 162.971 31.0307 163.29 30.8019C163.609 30.573 164.034 30.4364 164.564 30.3921C164.727 30.3774 164.856 30.418 164.949 30.5139C165.051 30.6025 165.109 30.7428 165.125 30.9348C165.14 31.1193 165.093 31.2707 164.984 31.3888C164.883 31.4995 164.727 31.566 164.517 31.5881L164.26 31.6103C163.785 31.6546 163.426 31.7948 163.185 32.0311C162.943 32.26 162.823 32.5848 162.823 33.0056V35.298C162.823 35.5269 162.76 35.704 162.636 35.8295C162.511 35.9477 162.328 36.0067 162.086 36.0067Z" fill="#F6AB4A"/>
<path d="M168.64 36.0289C167.993 36.0289 167.436 35.9145 166.968 35.6856C166.501 35.4567 166.139 35.1319 165.882 34.7111C165.632 34.2902 165.508 33.7919 165.508 33.216C165.508 32.6549 165.629 32.164 165.87 31.7432C166.119 31.3224 166.458 30.9938 166.887 30.7576C167.323 30.5139 167.818 30.3921 168.371 30.3921C168.776 30.3921 169.138 30.4549 169.458 30.5804C169.785 30.7059 170.061 30.8868 170.287 31.123C170.521 31.3593 170.696 31.6472 170.813 31.9868C170.938 32.319 171 32.6956 171 33.1164C171 33.2493 170.949 33.3526 170.848 33.4264C170.755 33.4929 170.618 33.5261 170.439 33.5261H166.688V32.7288H169.972L169.785 32.8949C169.785 32.5553 169.73 32.271 169.621 32.0422C169.52 31.8133 169.368 31.6398 169.165 31.5217C168.971 31.3962 168.725 31.3334 168.429 31.3334C168.102 31.3334 167.822 31.4073 167.588 31.5549C167.362 31.6952 167.187 31.8982 167.062 32.164C166.945 32.4224 166.887 32.7325 166.887 33.0942V33.1717C166.887 33.7771 167.035 34.2312 167.331 34.5339C167.635 34.8292 168.079 34.9768 168.663 34.9768C168.865 34.9768 169.091 34.9547 169.341 34.9104C169.598 34.8587 169.839 34.7738 170.065 34.6557C170.229 34.5671 170.373 34.5302 170.498 34.5449C170.622 34.5523 170.72 34.5929 170.79 34.6668C170.868 34.7406 170.914 34.8329 170.93 34.9436C170.945 35.047 170.922 35.154 170.86 35.2648C170.805 35.3755 170.708 35.4715 170.568 35.5527C170.295 35.7151 169.979 35.8369 169.621 35.9181C169.271 35.992 168.943 36.0289 168.64 36.0289Z" fill="#F6AB4A"/>
<path d="M57 32.0001H69" stroke="url(#paint0_linear_5186_2659)" stroke-width="2" stroke-linecap="round"/>
<defs>
<linearGradient id="paint0_linear_5186_2659" x1="57" y1="32.5001" x2="69" y2="32.5001" gradientUnits="userSpaceOnUse">
<stop stop-color="#7E4C4F"/>
<stop offset="1" stop-color="#F6AB4A"/>
</linearGradient>
</defs>
</svg>
