<svg width="18" height="18" viewBox="0 0 18 18" fill="none" xmlns="http://www.w3.org/2000/svg">
<path d="M15.5271 16.1543C15.3294 17.1338 14.4702 17.8126 13.5892 17.9606C12.7084 18.1086 11.8152 17.821 10.9904 17.442C10.9533 17.425 10.9164 17.4078 10.8794 17.3904C9.68859 16.8303 8.30853 16.8303 7.11769 17.3905C7.08077 17.4078 7.04381 17.425 7.00679 17.442C6.18202 17.8209 5.28873 18.1086 4.40777 17.9606C3.52681 17.8126 2.66778 17.1337 2.47007 16.1543C2.26868 15.1574 2.78193 14.1408 3.43652 13.4334C4.09112 12.726 4.89619 12.2114 5.53462 11.4855C6.09748 10.8457 6.51211 10.0632 6.99093 9.34156C7.27208 8.91767 7.59763 8.52968 8.04553 8.28169C8.63599 7.95476 9.36122 7.95476 9.95166 8.28172C10.3995 8.52971 10.725 8.91769 11.0062 9.34156C11.4849 10.0632 11.8997 10.8457 12.4624 11.4855C13.1008 12.2114 13.9059 12.726 14.5605 13.4334C15.2151 14.1409 15.7283 15.1574 15.5271 16.1543Z" fill="white"/>
<path d="M7.79269 6.27267C7.26668 6.79188 6.3578 6.88943 5.64274 6.61697C4.67986 6.24996 4.07406 5.31179 3.97157 4.3641C3.86925 3.41641 4.20401 2.46739 4.6945 1.62679C4.90205 1.27113 5.42734 0.679199 6.10304 0.679199C7.34666 0.679199 8.32079 2.31243 8.37391 4.37154C8.38941 4.97284 8.24017 5.83133 7.79269 6.27267Z" fill="white"/>
<path d="M4.46478 10.238C4.11143 10.8802 3.27197 11.2267 2.51137 11.1659C1.48714 11.0841 0.640217 10.3577 0.271036 9.48169C-0.0979795 8.60569 -0.0504376 7.6065 0.176954 6.66751C0.27331 6.27005 0.605101 5.55865 1.25005 5.37034C2.43697 5.02351 3.83452 6.31079 4.47498 8.26137C4.6621 8.831 4.76546 9.69207 4.46478 10.238Z" fill="white"/>
<path d="M10.2034 6.27267C10.7294 6.79188 11.6383 6.88943 12.3533 6.61697C13.3162 6.24996 13.922 5.31179 14.0245 4.3641C14.1268 3.41641 13.7921 2.46739 13.3016 1.62679C13.094 1.27113 12.5687 0.679199 11.893 0.679199C10.6494 0.679199 9.67529 2.31243 9.62217 4.37154C9.60667 4.97284 9.75591 5.83133 10.2034 6.27267Z" fill="white"/>
<path d="M13.5334 10.2381C13.8868 10.8802 14.7262 11.2268 15.4868 11.166C16.5111 11.0842 17.358 10.3577 17.7272 9.48174C18.0962 8.60574 18.0486 7.60655 17.8212 6.66756C17.7249 6.2701 17.3931 5.5587 16.7481 5.37039C15.5612 5.02356 14.1637 6.31084 13.5232 8.26142C13.3361 8.83105 13.2327 9.69212 13.5334 10.2381Z" fill="white"/>
<path d="M6.3255 0.00510171C6.3198 0.00381846 6.31425 0.00226395 6.3093 0.000156488C6.30906 0.000104323 6.30882 5.21649e-05 6.30859 0C6.32066 0.00567554 6.3278 0.00660406 6.3255 0.00510171Z" fill="white"/>
<path d="M11.4588 0.11794C11.4554 0.119182 11.4521 0.120423 11.4487 0.121623C11.4476 0.122051 11.4465 0.12251 11.4453 0.123C11.4562 0.119245 11.4598 0.117721 11.4588 0.11794Z" fill="white"/>
<path d="M11.1016 5.82049C11.1017 5.82053 11.1018 5.82056 11.102 5.8206C11.1049 5.82058 11.1161 5.82367 11.1211 5.825C11.124 5.82478 11.105 5.8184 11.1016 5.82049Z" fill="white"/>
<path d="M16.5329 4.62199C16.5025 4.61972 16.5186 4.61992 16.5329 4.62199V4.62199Z" fill="white"/>
</svg>
