<svg width="55" height="37" viewBox="0 0 55 37" fill="none" xmlns="http://www.w3.org/2000/svg">
<path d="M17.6407 26.0553C17.8679 26.2909 18.1446 26.4755 18.4518 26.5964C18.759 26.7174 19.0893 26.7718 19.42 26.7559H19.8373C20.5406 26.664 21.2137 26.4183 21.8066 26.0371C22.3995 25.6558 22.897 25.1489 23.2621 24.5539C24.1439 23.0756 24.1439 21.7668 23.4353 20.9506C22.7267 20.1345 21.2387 20.0036 19.8924 20.6658C19.2293 20.9623 18.6433 21.4016 18.1783 21.9509C17.7134 22.5003 17.3816 23.1454 17.2077 23.8379C17.0865 24.2136 17.0626 24.613 17.1382 25C17.2137 25.387 17.3864 25.7496 17.6407 26.0553ZM1.61904 31.8374C1.53513 32.2219 1.53092 32.619 1.60664 33.0052C1.68237 33.3913 1.83651 33.7587 2.05993 34.0856C2.27107 34.393 2.54273 34.6562 2.85905 34.8598C3.17537 35.0634 3.53 35.2033 3.90223 35.2713C4.72761 35.3961 5.56396 35.4374 6.39799 35.3945H7.97261C8.98558 35.4704 9.9895 35.6353 10.9722 35.8872C11.3692 36.0037 11.7561 36.1504 12.1296 36.3261C12.5994 36.5462 13.0898 36.7216 13.594 36.8496C13.8518 36.9096 14.1163 36.9381 14.3813 36.9343C15.0421 36.9356 15.6866 36.7336 16.2236 36.3569C16.5997 36.0857 16.9127 35.7396 17.142 35.3415C17.3714 34.9433 17.5118 34.5022 17.5541 34.0471C17.6466 33.0152 17.5696 31.9755 17.3258 30.9674C16.8144 28.3922 15.6043 25.9988 13.8223 24.038C11.7044 21.89 9.21655 21.7283 6.81527 23.5992C6.26851 24.0061 5.76947 24.4708 5.32726 24.9851C4.9336 25.4778 4.53995 25.986 4.1463 26.5249C3.165 27.8464 2.40494 29.3122 1.8946 30.8673C1.78438 31.1599 1.69777 31.4986 1.61904 31.8374ZM10.8463 18.6871C11.3555 17.754 11.5683 16.6935 11.4575 15.6415C11.3467 14.5894 10.9173 13.5937 10.2243 12.7817C9.95716 12.5051 9.62886 12.2919 9.26451 12.1585C8.90016 12.025 8.50942 11.9748 8.1222 12.0118C7.74267 12.0757 7.38358 12.2251 7.07337 12.4483C6.76316 12.6715 6.51037 12.9623 6.33501 13.2976C5.94054 13.9776 5.73938 14.7486 5.7524 15.5303C5.7423 16.2232 5.8815 16.9103 6.16094 17.5471C6.44037 18.1838 6.85378 18.7559 7.37426 19.226C7.81073 19.5998 8.36875 19.8099 8.94887 19.8188H9.24804C9.58214 19.754 9.89795 19.6193 10.1738 19.424C10.4497 19.2286 10.6791 18.9772 10.8463 18.6871ZM18.9634 16.8161V16.308C19.0164 15.8843 18.9549 15.4545 18.785 15.0614C18.615 14.6682 18.3427 14.3255 17.995 14.0675C17.6065 13.8712 17.172 13.7786 16.7352 13.7989C16.2985 13.8191 15.8749 13.9516 15.5071 14.183C14.6214 14.6771 13.9115 15.4243 13.4724 16.3244C13.0333 17.2244 12.8862 18.2342 13.0507 19.2183C13.1055 19.6171 13.2628 19.9957 13.5079 20.3189C13.7529 20.642 14.0778 20.8991 14.4521 21.0661C14.6809 21.1516 14.9237 21.196 15.1686 21.197C15.7388 21.1791 16.2891 20.988 16.7432 20.6504L16.9322 20.5118C18.0795 19.5888 18.8092 18.2612 18.9634 16.8161ZM0.611291 18.6871C0.138739 19.5048 -0.0676938 20.4439 0.019517 21.3793C0.106728 22.3147 0.483438 23.2019 1.09942 23.9226C1.32534 24.1975 1.60864 24.4221 1.93041 24.5815C2.25218 24.7408 2.60501 24.8311 2.96534 24.8465H3.17004C3.56146 24.7839 3.93149 24.6293 4.2483 24.3959C4.5651 24.1626 4.81919 23.8574 4.98871 23.5068C5.31167 22.9041 5.47414 22.2315 5.4611 21.5512C5.47556 20.9175 5.35651 20.2876 5.11136 19.7008C4.8662 19.1141 4.50018 18.5829 4.03607 18.1404C3.79867 17.903 3.50657 17.7247 3.18423 17.6204C2.86189 17.5161 2.51868 17.4888 2.18334 17.5408C1.848 17.5928 1.53028 17.7226 1.25677 17.9194C0.983263 18.1161 0.761928 18.3741 0.611291 18.6717V18.6871Z" fill="#F6AB4A"/>
<path d="M50.4436 19.7254C51.5259 18.4933 51.8099 17.2158 51.2451 16.2482C50.6803 15.2807 49.2928 14.8918 47.8214 15.2903C47.1198 15.4487 46.4671 15.7654 45.913 16.2163C45.3589 16.6672 44.9181 17.2404 44.6239 17.8923C44.4418 18.2417 44.3483 18.6317 44.3515 19.029C44.3548 19.4263 44.4546 19.819 44.6425 20.1735C44.7518 20.3503 44.8867 20.5104 45.0429 20.6482C45.5024 21.0262 46.0695 21.2474 46.6585 21.2784C47.3729 21.3279 48.0856 21.2137 48.7418 20.9445C49.3979 20.6752 49.9801 20.2582 50.4436 19.7254ZM35.8999 11.3251C36.0127 11.439 36.1332 11.5449 36.2607 11.6421C36.643 11.9864 37.1274 12.1953 37.6362 12.2355C37.9703 12.2421 38.3005 12.1787 38.6054 12.0494C38.9104 11.9201 39.1833 11.7277 39.4064 11.4848C40.07 10.6614 40.4684 9.65429 40.5509 8.59164C40.6335 7.52899 40.3964 6.45888 39.8699 5.51754C39.6633 5.18853 39.3842 4.91003 39.0544 4.70388C38.7246 4.49772 38.3531 4.36951 37.9689 4.32931C37.5874 4.3168 37.2101 4.39364 36.8676 4.55365C36.525 4.71367 36.2266 4.9524 35.9963 5.25069C35.3271 6.10386 34.9563 7.15552 34.939 8.24971C34.9216 9.34389 35.2585 10.4223 35.8999 11.3251ZM29.4205 9.45571C28.8101 10.1741 28.439 11.0664 28.3569 12.0128C28.2748 12.9592 28.4857 13.9144 28.9612 14.7502C29.131 15.0444 29.3469 15.3103 29.6006 15.5374C29.9361 15.8432 30.3591 16.0352 30.807 16.0847C31.1998 16.1005 31.5884 16.0206 31.9392 15.852C32.29 15.6834 32.5924 15.4311 32.8202 15.1171C33.3949 14.3304 33.7077 13.3805 33.7161 12.3972C33.7245 11.414 33.4279 10.4455 32.867 9.62413C32.6815 9.33734 32.43 9.0981 32.1341 8.9269C31.8382 8.7557 31.5067 8.65762 31.168 8.64107C30.8292 8.62451 30.4933 8.68997 30.189 8.83185C29.8846 8.97372 29.621 9.18778 29.4205 9.45571ZM31.4512 17.8804C30.2553 18.9919 29.2471 20.2886 28.4637 21.7226C28.3052 22.0343 28.1466 22.3459 28.0169 22.6726C27.8694 23.0321 27.7952 23.4186 27.7984 23.81C27.8016 24.2014 27.8821 24.5901 28.0354 24.9538C28.2096 25.3484 28.4683 25.7016 28.793 25.9882C29.0368 26.2026 29.3151 26.3742 29.6154 26.4954C30.3964 26.7858 31.2042 26.9939 32.0253 27.1162C32.5631 27.2197 33.0781 27.3135 33.5804 27.4575C34.553 27.7338 35.5006 28.0964 36.4118 28.5408C36.7756 28.7345 37.1246 28.9554 37.4556 29.2016C37.884 29.5202 38.3394 29.8003 38.8165 30.0384C39.2308 30.2332 39.6808 30.3363 40.135 30.3406C40.5892 30.3448 41.0366 30.2501 41.4461 30.0631C41.8662 29.869 42.2374 29.586 42.5345 29.2334C42.8317 28.8807 43.0477 28.4667 43.1679 28.0195C43.4456 27.0021 43.5516 25.9422 43.4818 24.8826C43.4494 22.2341 42.7083 19.6266 41.3351 17.3296C39.6311 14.8078 37.2619 14.1408 34.5707 15.4865C33.9648 15.7774 33.3957 16.1371 32.8745 16.5585C32.4096 16.9802 31.9456 17.413 31.4512 17.8804ZM44.9956 14.4988C46.2805 13.8198 47.2321 12.655 47.6424 11.2592C47.6936 11.0977 47.7364 10.9335 47.7707 10.7672C47.8977 10.3524 47.9123 9.90919 47.813 9.48199C47.7138 9.05479 47.5041 8.65868 47.205 8.3334C46.8655 8.05694 46.4589 7.87632 46.0289 7.81094C45.5989 7.74556 45.1617 7.7979 44.7644 7.96233C43.8108 8.27308 42.982 8.86978 42.3896 9.67217C41.7971 10.4745 41.4694 11.4441 41.4506 12.4504C41.4393 12.806 41.5041 13.1616 41.6407 13.4936C41.7773 13.8256 41.9824 14.1263 42.2426 14.376L42.4674 14.5734C42.8205 14.7756 43.2173 14.886 43.6206 14.8943C44.024 14.9027 44.4205 14.8086 44.773 14.621C44.8627 14.5666 44.9271 14.5411 44.9956 14.4988Z" fill="#F6AB4A"/>
</svg>
